{"title":"7E.2013.HDRiP.XViD-FiRE","uid":9471832,"size":737555652,"categoryP":"video","categoryS":"movies","magnet":"?xt=urn:btih:076cf38a9cb20321f714132fd952d1398a17b686&amp;dn=7E.2013.HDRiP.XViD-FiRE&amp;tr=udp%3A%2F%2Ftracker.openbittorrent.com%3A80&amp;tr=udp%3A%2F%2Fopen.demonii.com%3A1337&amp;tr=udp%3A%2F%2Ftracker.coppersurfer.tk%3A6969&amp;tr=udp%3A%2F%2Fexodus.desync.com%3A6969","seeders":1,"leechers":1,"uploader":"Acesn8s","files":-1,"time":1389596506,"description":"7E.2013.HDRiP.XViD-FiRE\n\nâ™ â™ â™ â™ â™ â™ â™ â™ â™ â™ â™ â™ â™ â™ â™ â™ â™ â™ â™ â™ â™ â™ â™ â™ â™ â™ â™ â™ â™ â™ â™ â™ â™ â™ â™ â™ â™ â™ â™ â™ â™ â™ â™ â™ â™ â™ â™ â™ â™ â™ â™ â™ â™ â™ â™ â™ â™ â™ â™ â™ â™ â™ â™ â™ â™ â™ â™ â™ â™ â™ â™ â™ â™ â™ â™ â™ â™ â™ â™ â™ â™ â™ \n           \nFormat                                   : AVI\nFormat/Info                              : Audio Video Interleave\nFile size                                : 696 MiB\nDuration                                 : 1h 18mn\nOverall bit rate                         : 1 232 Kbps\nWriting application                      : VirtualDubMod 1.5.10.2 \nWriting library                          : VirtualDubMod build 2542/release\n\nâ™ â™ â™ â™ â™ â™ â™ â™ â™ â™ â™ â™ â™ â™ â™ â™ â™ â™ â™ â™ â™ â™ â™ â™ â™ â™ â™ â™ â™ â™ â™ â™ â™ â™ â™ â™ â™ â™ â™ â™ â™ â™ â™ â™ â™ â™ â™ â™ â™ â™ â™ â™ â™ â™ â™ â™ â™ â™ â™ â™ â™ â™ â™ â™ â™ â™ â™ â™ â™ â™ â™ â™ â™ â™ â™ â™ â™ â™ â™ â™ â™ â™ \n\nVideo\n\nID                                       : 0\nFormat                                   : MPEG-4 Visual\nFormat profile                           : Advanced Simple@L5\nFormat settings, BVOP                    : 2\nFormat settings, QPel                    : No\nFormat settings, GMC                     : No warppoints\nFormat settings, Matrix                  : Default (H.263)\nMuxing mode                              : Packed bitstream\nCodec ID                                 : XVID\nCodec ID/Hint                            : XviD\nDuration                                 : 1h 18mn\nBit rate                                 : 1 095 Kbps\nWidth                                    : 656 pixels\nHeight                                   : 368 pixels\nDisplay aspect ratio                     : 16:9\nFrame rate                               : 23.976 fps\nColor space                              : YUV\nChroma subsampling                       : 4:2:0\nBit depth                                : 8 bits\nScan type                                : Progressive\nCompression mode                         : Lossy\nBits/(Pixel*Frame)                       : 0.334\nStream size                              : 619 MiB (89%)\nWriting library                          : XviD 58\n\nâ™ â™ â™ â™ â™ â™ â™ â™ â™ â™ â™ â™ â™ â™ â™ â™ â™ â™ â™ â™ â™ â™ â™ â™ â™ â™ â™ â™ â™ â™ â™ â™ â™ â™ â™ â™ â™ â™ â™ â™ â™ â™ â™ â™ â™ â™ â™ â™ â™ â™ â™ â™ â™ â™ â™ â™ â™ â™ â™ â™ â™ â™ â™ â™ â™ â™ â™ â™ â™ â™ â™ â™ â™ â™ â™ â™ â™ â™ â™ â™ â™ â™ \n\nAudio\n\nID                                       : 1\nFormat                                   : MPEG Audio\nFormat version                           : Version 1\nFormat profile                           : Layer 3\nMode                                     : Joint stereo\nMode extension                           : MS Stereo\nCodec ID                                 : 55\nCodec ID/Hint                            : MP3\nDuration                                 : 1h 18mn\nBit rate mode                            : Constant\nBit rate                                 : 128 Kbps\nChannel(s)                               : 2 channels\nSampling rate                            : 48.0 KHz\nCompression mode                         : Lossy\nStream size                              : 72.3 MiB (10%)\nAlignment                                : Aligned on interleaves\nInterleave, duration                     : 42 ms (1.00 video frame)\nInterleave, preload duration             : 504 ms\nWriting library                          : LAME3.97 \nEncoding settings                        : -m j -V 4 -q 2 -lowpass 17 -b 128\n\nâ™ â™ â™ â™ â™ â™ â™ â™ â™ â™ â™ â™ â™ â™ â™ â™ â™ â™ â™ â™ â™ â™ â™ â™ â™ â™ â™ â™ â™ â™ â™ â™ â™ â™ â™ â™ â™ â™ â™ â™ â™ â™ â™ â™ â™ â™ â™ â™ â™ â™ â™ â™ â™ â™ â™ â™ â™ â™ â™ â™ â™ â™ â™ â™ â™ â™ â™ â™ â™ â™ â™ â™ â™ â™ â™ â™ â™ â™ â™ â™ â™ â™ \n\nGenre:  Drama, Thriller\n\nActors: Natasha Lyonne, Brendan Sexton III, John Savage\n\nPlot:  A young man struggles with unexplained events inside of \na New York apartment where tenants are not who they appear to be. \n\nâ™ â™ â™ â™ â™ â™ â™ â™ â™ â™ â™ â™ â™ â™ â™ â™ â™ â™ â™ â™ â™ â™ â™ â™ â™ â™ â™ â™ â™ â™ â™ â™ â™ â™ â™ â™ â™ â™ â™ â™ â™ â™ â™ â™ â™ â™ â™ â™ â™ â™ â™ â™ â™ â™ â™ â™ â™ â™ â™ â™ â™ â™ â™ â™ â™ â™ â™ â™ â™ â™ â™ â™ â™ â™ â™ â™ â™ â™ â™ â™ â™ â™ \n\nIMDb: \n &lt;a href=&quot;\nhttp://www.imdb.com/title/tt1477185/&quot; rel=&quot;nofollow&quot; target=&quot;_NEW&quot;&gt;\nhttp://www.imdb.com/title/tt1477185/&lt;/a&gt;\n\nâ™ â™ â™ â™ â™ â™ â™ â™ â™ â™ â™ â™ â™ â™ â™ â™ â™ â™ â™ â™ â™ â™ â™ â™ â™ â™ â™ â™ â™ â™ â™ â™ â™ â™ â™ â™ â™ â™ â™ â™ â™ â™ â™ â™ â™ â™ â™ â™ â™ â™ â™ â™ â™ â™ â™ â™ â™ â™ â™ â™ â™ â™ â™ â™ â™ â™ â™ â™ â™ â™ â™ â™ â™ â™ â™ â™ â™ â™ â™ â™ â™ â™ \n\nScreens:\n &lt;a href=&quot;\nhttp://img.acianetmedia.com/i/zoWY2.jpg&quot; rel=&quot;nofollow&quot; target=&quot;_NEW&quot;&gt;\nhttp://img.acianetmedia.com/i/zoWY2.jpg&lt;/a&gt;\n &lt;a href=&quot;\nhttp://img.acianetmedia.com/i/D4YGV.jpg&quot; rel=&quot;nofollow&quot; target=&quot;_NEW&quot;&gt;\nhttp://img.acianetmedia.com/i/D4YGV.jpg&lt;/a&gt;\n &lt;a href=&quot;\nhttp://img.acianetmedia.com/i/dsW7A.jpg&quot; rel=&quot;nofollow&quot; target=&quot;_NEW&quot;&gt;\nhttp://img.acianetmedia.com/i/dsW7A.jpg&lt;/a&gt;\n &lt;a href=&quot;\nhttp://img.acianetmedia.com/i/m7xaM.jpg&quot; rel=&quot;nofollow&quot; target=&quot;_NEW&quot;&gt;\nhttp://img.acianetmedia.com/i/m7xaM.jpg&lt;/a&gt;\n &lt;a href=&quot;\nhttp://img.acianetmedia.com/i/StBfX.jpg&quot; rel=&quot;nofollow&quot; target=&quot;_NEW&quot;&gt;\nhttp://img.acianetmedia.com/i/StBfX.jpg&lt;/a&gt;","torrent":{"xt":"urn:btih:076cf38a9cb20321f714132fd952d1398a17b686","amp;dn":"7E.2013.HDRiP.XViD-FiRE","amp;tr":["udp%3A%2F%2Ftracker.openbittorrent.com%3A80","udp%3A%2F%2Fopen.demonii.com%3A1337","udp%3A%2F%2Ftracker.coppersurfer.tk%3A6969","udp%3A%2F%2Fexodus.desync.com%3A6969"],"infoHash":"076cf38a9cb20321f714132fd952d1398a17b686","infoHashBuffer":{"type":"Buffer","data":[7,108,243,138,156,178,3,33,247,20,19,47,217,82,209,57,138,23,182,134]},"announce":[],"urlList":[]}}